<svg width="61" height="61" viewBox="0 0 61 61" fill="none" xmlns="http://www.w3.org/2000/svg">
<path d="M21.7141 18.9708H21.7186V18.2637L21.7272 19.0118C26.9789 19.0145 31.2383 14.7594 31.2412 9.50786C31.2425 6.98133 30.2383 4.5581 28.4501 2.77315C26.6658 0.985743 24.2401 -0.0128486 21.7146 0.000124849H21.7102C16.4716 0.00122637 12.2257 4.24882 12.2268 9.48742C12.2279 14.726 16.4755 18.9719 21.7141 18.9708ZM16.0193 3.81874C17.5282 2.30439 19.5809 1.45805 21.7186 1.46882H21.7224C26.1499 1.46772 29.7399 5.05599 29.7411 9.4835C29.7422 13.911 26.154 17.501 21.7266 17.5022H21.7143C17.2906 17.5245 13.6863 13.9565 13.6639 9.53271C13.653 7.38963 14.5014 5.33162 16.0193 3.81874Z" fill="white"/>
<path d="M39.9884 30.6888C39.0269 30.6887 38.0676 30.7801 37.1235 30.9619C35.4841 25.0516 30.1145 20.9525 23.9811 20.9291H19.4764C11.9522 20.9291 5.87024 27.0795 5.87024 34.6077V48.6554C5.87024 49.061 6.14072 49.4463 6.54621 49.4463H25.2706C26.9354 56.2242 33.0091 60.9922 39.9884 61C48.3375 61 55.13 54.1935 55.13 45.8444C55.13 37.4954 48.3375 30.6888 39.9884 30.6888ZM7.33894 47.9776V34.6089C7.33894 27.8905 12.7609 22.3978 19.4776 22.3978H23.9799C29.4333 22.4214 34.2122 26.0529 35.6958 31.3006C29.2634 33.2251 24.8541 39.1401 24.8469 45.8542C24.8489 46.5644 24.8972 47.2737 24.9918 47.9776H7.33894ZM39.9884 59.5031C32.4371 59.5031 26.3156 53.3815 26.3156 45.8302C26.3156 38.2789 32.4371 32.1574 39.9884 32.1574C47.5397 32.1574 53.6613 38.2789 53.6613 45.8302V45.8303C53.6528 53.3781 47.5362 59.4946 39.9884 59.5031Z" fill="white"/>
<path d="M37.1131 40.4939C36.8625 40.1751 36.4008 40.1199 36.082 40.3705L29.9406 45.1992C29.6218 45.4499 29.5666 45.9116 29.8173 46.2304C29.8534 46.2763 29.8947 46.3177 29.9406 46.3538L36.082 51.1827C36.4008 51.4334 36.8625 51.3782 37.1133 51.0593C37.364 50.7405 37.3087 50.2788 36.9899 50.0281L31.5826 45.7764L36.9899 41.5248C37.3086 41.2743 37.3638 40.8126 37.1131 40.4939Z" fill="#1EB0DE"/>
<path d="M42.6765 40.4939C42.4257 40.8127 42.4809 41.2744 42.7996 41.5251C42.7996 41.5251 42.7998 41.5251 42.7998 41.5252L48.207 45.7768L42.7998 50.0285C42.4809 50.2791 42.4257 50.7409 42.6764 51.0597C42.927 51.3786 43.3888 51.4338 43.7077 51.1831L49.849 46.3542C50.1678 46.1035 50.223 45.6419 49.9724 45.323C49.9363 45.2771 49.8949 45.2358 49.849 45.1996L43.7077 40.3707C43.3888 40.1199 42.9272 40.1751 42.6765 40.4939Z" fill="#1EB0DE"/>
<path d="M41.0944 37.888C40.6936 37.8277 40.3196 38.1035 40.2585 38.5042L38.079 52.9075C38.0181 53.3084 38.2939 53.6828 38.695 53.7436C39.096 53.8045 39.4703 53.5287 39.5311 53.1276L41.7111 38.7245C41.772 38.3235 41.4964 37.949 41.0954 37.8881C41.0951 37.8881 41.0948 37.888 41.0944 37.888Z" fill="#1EB0DE"/>
</svg>
