<svg width="49" height="49" viewBox="0 0 49 49" fill="none" xmlns="http://www.w3.org/2000/svg">
<path d="M42.6903 0H6.30971C2.83052 0 0 2.83052 0 6.30971V42.6903C0 46.1695 2.83052 49 6.30971 49H42.6903C46.1695 49 49 46.1695 49 42.6903V6.30971C49 2.83052 46.1695 0 42.6903 0ZM47.2947 42.6903C47.2947 45.2292 45.2292 47.2947 42.6903 47.2947H6.30971C3.7708 47.2947 1.70533 45.2292 1.70533 42.6903V6.30971C1.70533 3.7708 3.7708 1.70533 6.30971 1.70533H42.6903C45.2292 1.70533 47.2947 3.7708 47.2947 6.30971V42.6903Z" fill="white"/>
<path d="M44.5093 23.6473H42.69C42.2192 23.6473 41.8374 24.0291 41.8374 24.5C41.8374 24.9708 42.2192 25.3527 42.69 25.3527H44.5093C44.9802 25.3527 45.3621 24.9709 45.3621 24.5C45.362 24.0292 44.9802 23.6473 44.5093 23.6473Z" fill="white"/>
<path d="M39.0521 23.6473H25.3527V9.94783C25.3527 9.47697 24.9709 9.09521 24.5 9.09521C24.0291 9.09521 23.6474 9.47697 23.6474 9.94783V23.6473H4.49065C4.01979 23.6473 3.63794 24.029 3.63794 24.4999C3.63794 24.9707 4.0197 25.3526 4.49065 25.3526H23.6473V44.5092C23.6473 44.9801 24.029 45.3619 24.4999 45.3619C24.9707 45.3619 25.3526 44.9802 25.3526 44.5092V25.3527H39.052C39.5229 25.3527 39.9046 24.9709 39.9046 24.5C39.9047 24.0291 39.523 23.6473 39.0521 23.6473Z" fill="white"/>
<path d="M24.5 3.63806C24.0291 3.63806 23.6473 4.01982 23.6473 4.49078V6.31009C23.6473 6.78114 24.0291 7.16281 24.5 7.16281C24.9708 7.16281 25.3527 6.78105 25.3527 6.31009V4.49078C25.3527 4.01982 24.9708 3.63806 24.5 3.63806Z" fill="white"/>
<path d="M18.1335 11.8237H13.5291V7.21929C13.5291 6.74843 13.1473 6.36658 12.6765 6.36658C12.2056 6.36658 11.8238 6.74834 11.8238 7.21929V11.8237H7.21929C6.74843 11.8237 6.36658 12.2054 6.36658 12.6764C6.36658 13.1473 6.74834 13.529 7.21929 13.529H11.8237V18.1334C11.8237 18.6042 12.2054 18.986 12.6764 18.986C13.1473 18.986 13.529 18.6042 13.529 18.1334V13.529H18.1334C18.6042 13.529 18.986 13.1472 18.986 12.6764C18.986 12.2055 18.6043 11.8237 18.1335 11.8237Z" fill="#1EB0DE"/>
<path d="M41.7807 11.8236H30.8665C30.3957 11.8236 30.0139 12.2054 30.0139 12.6763C30.0139 13.1473 30.3957 13.5289 30.8665 13.5289H41.7807C42.2516 13.5289 42.6334 13.1472 42.6334 12.6763C42.6334 12.2055 42.2517 11.8236 41.7807 11.8236Z" fill="white"/>
<path d="M41.7807 32.7424H30.8665C30.3957 32.7424 30.0139 33.1242 30.0139 33.5951C30.0139 34.0659 30.3957 34.4478 30.8665 34.4478H41.7807C42.2516 34.4478 42.6334 34.066 42.6334 33.5951C42.6334 33.1242 42.2517 32.7424 41.7807 32.7424Z" fill="#1EB0DE"/>
<path d="M41.7807 38.1995H30.8665C30.3957 38.1995 30.0139 38.5813 30.0139 39.0521C30.0139 39.523 30.3957 39.9049 30.8665 39.9049H41.7807C42.2516 39.9049 42.6334 39.5231 42.6334 39.0521C42.6334 38.5813 42.2517 38.1995 41.7807 38.1995Z" fill="#1EB0DE"/>
<path d="M13.8821 36.3236L17.8268 32.3789C18.1597 32.0461 18.1597 31.506 17.8268 31.1732C17.4938 30.8402 16.9538 30.8402 16.621 31.1732L12.6763 35.1179L8.7316 31.1732C8.39865 30.8402 7.85869 30.8402 7.52584 31.1732C7.19289 31.5061 7.19289 32.0461 7.52584 32.3789L11.4705 36.3236L7.52584 40.2683C7.19289 40.6013 7.19289 41.1412 7.52584 41.4741C7.69226 41.6406 7.91056 41.7239 8.12877 41.7239C8.34697 41.7239 8.56517 41.6406 8.7317 41.4741L12.6764 37.5294L16.6211 41.4741C16.7875 41.6405 17.0058 41.7239 17.224 41.7239C17.4422 41.7239 17.6604 41.6406 17.8269 41.4741C18.1599 41.1411 18.1599 40.6012 17.8269 40.2683L13.8821 36.3236Z" fill="white"/>
</svg>
