<svg width="57" height="57" viewBox="0 0 57 57" fill="none" xmlns="http://www.w3.org/2000/svg">
<path d="M48.4262 19.6593C47.9256 11.1093 40.8775 4.27502 32.3798 4.27502C27.2213 4.27502 22.2262 6.80487 19.1311 10.9326C19.0608 10.8956 18.9858 10.8709 18.9145 10.8357C18.7264 10.7445 18.5354 10.6571 18.3398 10.5802C18.2305 10.5374 18.1213 10.4985 18.011 10.4595C17.8191 10.3921 17.6253 10.3332 17.4268 10.279C17.3166 10.2496 17.2073 10.2192 17.0953 10.1935C16.8825 10.1451 16.6658 10.108 16.4464 10.0757C16.3495 10.0615 16.2545 10.0425 16.1567 10.0311C15.8432 9.99687 15.5239 9.97502 15.2 9.97502C10.4861 9.97502 6.65 13.8102 6.65 18.525C6.65 18.6476 6.65665 18.7673 6.6652 18.887C2.71415 21.0406 0 25.5541 0 30.0713C0 36.8002 5.4739 42.275 12.2028 42.275H17.1C17.6244 42.275 18.05 41.8504 18.05 41.325C18.05 40.7997 17.6244 40.375 17.1 40.375H12.2028C6.52175 40.375 1.9 35.7533 1.9 30.0713C1.9 26.125 4.46975 22.0286 8.0104 20.331L8.55 20.0735V19.475C8.55 19.3582 8.5576 19.2385 8.56425 19.1188L8.5728 18.9525L8.5614 18.7739C8.55665 18.6913 8.55 18.6086 8.55 18.525C8.55 14.859 11.533 11.875 15.2 11.875C15.4935 11.875 15.7833 11.9007 16.0711 11.9387C16.1453 11.9482 16.2184 11.9605 16.2915 11.9729C16.5462 12.0147 16.7969 12.0698 17.0439 12.141C17.0763 12.1505 17.1095 12.1562 17.1408 12.1657C17.4125 12.2484 17.6776 12.3538 17.937 12.4716C18.0025 12.5011 18.0671 12.5334 18.1317 12.5657C18.3616 12.6787 18.5867 12.8041 18.8033 12.9447C20.634 14.1313 21.85 16.1871 21.85 18.525C21.85 19.0504 22.2756 19.475 22.8 19.475C23.3244 19.475 23.75 19.0504 23.75 18.525C23.75 15.9087 22.5663 13.567 20.71 11.9976C23.4327 8.43507 27.9186 6.17502 32.3798 6.17502C39.7366 6.17502 45.8489 12.0033 46.4854 19.3677C45.5145 19.2993 44.06 19.2641 42.6065 19.4864C42.0878 19.5653 41.7316 20.0498 41.8105 20.5685C41.8817 21.0387 42.2864 21.376 42.7481 21.376C42.7956 21.376 42.8441 21.3722 42.8925 21.3646C45.0053 21.0454 47.2083 21.3446 47.3423 21.3627C51.7655 22.2034 55.1 26.278 55.1 30.8484C55.1 36.101 50.826 40.375 45.5734 40.375H41.8C41.2756 40.375 40.85 40.7997 40.85 41.325C40.85 41.8504 41.2756 42.275 41.8 42.275H45.5734C51.8738 42.275 57 37.1488 57 30.8484C57 25.6339 53.3643 20.957 48.4262 19.6593Z" fill="white"/>
<path d="M30.1227 29.2543C30.0353 29.166 29.9299 29.0966 29.813 29.0482C29.5812 28.9522 29.319 28.9522 29.0872 29.0482C28.9704 29.0966 28.8659 29.166 28.7775 29.2543L21.1785 36.8534C20.807 37.2248 20.807 37.8252 21.1785 38.1967C21.3637 38.3819 21.6069 38.475 21.8501 38.475C22.0933 38.475 22.3365 38.3819 22.5218 38.1967L28.5001 32.2183V51.775C28.5001 52.3004 28.9257 52.725 29.4501 52.725C29.9745 52.725 30.4001 52.3004 30.4001 51.775V32.2183L36.3785 38.1967C36.5637 38.3819 36.8069 38.475 37.0501 38.475C37.2933 38.475 37.5365 38.3819 37.7218 38.1967C38.0932 37.8252 38.0932 37.2248 37.7218 36.8534L30.1227 29.2543Z" fill="#1EB0DE"/>
</svg>
