<svg width="1629" height="1095" viewBox="0 0 1629 1095" fill="none" xmlns="http://www.w3.org/2000/svg"><path fill="url(#a)" style="mix-blend-mode:multiply" d="M1474 303h4v787h-4z" opacity=".25"/><path fill="url(#b)" style="mix-blend-mode:multiply" d="M1206 453h4v637h-4z" opacity=".25"/><path fill="url(#c)" style="mix-blend-mode:multiply" d="M810 684h4v406h-4z" opacity=".25"/><path fill="url(#d)" style="mix-blend-mode:multiply" d="M790 700h4v390h-4z" opacity=".25"/><g opacity=".25"><path fill="#C4C4C4" d="M445 557h4v533h-4z"/><path fill="url(#e)" style="mix-blend-mode:multiply" d="M445 557h4v533h-4z"/></g><g opacity=".25"><path fill="#C4C4C4" d="M476 597h4v493h-4z"/><path fill="url(#f)" style="mix-blend-mode:multiply" d="M476 597h4v493h-4z"/></g><g opacity=".25"><path fill="#C4C4C4" d="M251 684h4v406h-4z"/><path fill="url(#g)" style="mix-blend-mode:multiply" d="M251 684h4v406h-4z"/></g><path opacity=".5" d="M228 1090h1650c-20.5-81-67.77-276.908-92.81-412.554-65.58-355.315-325.89-302.396-380.93-263.516-70.89 50.081-125.18 80.999-282.73 231.117-157.559 150.117-351.803 69.119-456.48 0-104.676-69.119-219.064-76.679-315.108 0C273.108 706.39 236.633 967.242 228 1090z" fill="url(#h)"/><path d="M127 1090h1681c-20.89-82.49-69.04-282.021-94.55-420.172-66.81-361.876-332.02-307.98-388.09-268.382-72.23 51.005-127.53 82.494-288.05 235.384-160.511 152.89-358.406 70.395-465.048 0-106.643-70.395-223.181-78.095-321.029 0C172.955 699.306 135.795 964.975 127 1090z" fill="url(#i)"/><path d="M0 1090h1738c-21.6-85.37-71.38-291.855-97.76-434.823-69.07-374.493-343.28-318.718-401.25-277.74-74.67 52.785-131.85 85.371-297.81 243.592-165.957 158.221-370.561 72.85-480.82 0-110.259-72.85-230.748-80.818-331.914 0C47.514 685.683 9.094 960.616 0 1090z" fill="url(#j)"/><defs><radialGradient id="a" cx="0" cy="0" r="1" gradientUnits="userSpaceOnUse" gradientTransform="matrix(0 393.5 -2 0 1476 696.5)"><stop stop-color="#373E7B"/><stop offset="1" stop-color="#213053"/></radialGradient><radialGradient id="b" cx="0" cy="0" r="1" gradientUnits="userSpaceOnUse" gradientTransform="matrix(0 318.5 -2 0 1208 771.5)"><stop stop-color="#373E7B"/><stop offset="1" stop-color="#213053"/></radialGradient><radialGradient id="c" cx="0" cy="0" r="1" gradientUnits="userSpaceOnUse" gradientTransform="matrix(0 203 -2 0 812 887)"><stop stop-color="#373E7B"/><stop offset="1" stop-color="#213053"/></radialGradient><radialGradient id="d" cx="0" cy="0" r="1" gradientUnits="userSpaceOnUse" gradientTransform="matrix(0 195 -2 0 792 895)"><stop stop-color="#373E7B"/><stop offset="1" stop-color="#213053"/></radialGradient><radialGradient id="e" cx="0" cy="0" r="1" gradientUnits="userSpaceOnUse" gradientTransform="matrix(0 266.5 -2 0 447 823.5)"><stop stop-color="#373E7B"/><stop offset="1" stop-color="#213053"/></radialGradient><radialGradient id="f" cx="0" cy="0" r="1" gradientUnits="userSpaceOnUse" gradientTransform="matrix(0 246.5 -2 0 478 843.5)"><stop stop-color="#373E7B"/><stop offset="1" stop-color="#213053"/></radialGradient><radialGradient id="g" cx="0" cy="0" r="1" gradientUnits="userSpaceOnUse" gradientTransform="matrix(0 203 -2 0 253 887)"><stop stop-color="#373E7B"/><stop offset="1" stop-color="#213053"/></radialGradient><radialGradient id="h" cx="0" cy="0" r="1" gradientUnits="userSpaceOnUse" gradientTransform="matrix(0 352 -825 0 1053 738)"><stop stop-color="#5E70A7" stop-opacity=".24"/><stop offset="1" stop-color="#213053" stop-opacity=".26"/></radialGradient><radialGradient id="i" cx="0" cy="0" r="1" gradientUnits="userSpaceOnUse" gradientTransform="matrix(0 358.5 -840.5 0 967.5 731.5)"><stop stop-color="#5E70A7" stop-opacity=".24"/><stop offset="1" stop-color="#213053" stop-opacity=".26"/></radialGradient><radialGradient id="j" cx="0" cy="0" r="1" gradientUnits="userSpaceOnUse" gradientTransform="matrix(0 371 -869 0 869 719)"><stop stop-color="#5E70A7" stop-opacity=".24"/><stop offset="1" stop-color="#213053" stop-opacity=".26"/></radialGradient></defs></svg>