<svg width="1920" height="1294" viewBox="0 0 1920 1294" fill="none" xmlns="http://www.w3.org/2000/svg"><path opacity=".25" d="M-215 1055h2208c-27.44-108.497-90.69-370.915-124.19-552.612-87.76-475.94-436.11-405.055-509.76-352.977-94.87 67.083-167.52 108.497-378.351 309.579-210.836 201.081-470.77 92.584-610.846 0-140.076-92.584-293.149-102.711-421.672 0C-154.637 541.158-203.447 890.567-215 1055z" fill="url(#a)"/><path d="M-29 866h2030c-25.23-99.638-83.38-340.628-114.18-507.488-80.68-437.078-400.95-371.981-468.67-324.155-87.21 61.605-154 99.638-347.84 284.3-193.842 184.662-432.822 85.024-561.606 0-128.783-85.025-269.516-94.324-387.678 0C26.496 394.116-18.379 714.993-29 866z" fill="url(#b)" style="mix-blend-mode:multiply" opacity=".25"/><circle opacity=".35" cx="868" cy="1030" r="381" fill="url(#c)"/><path fill="#364164" fill-opacity=".45" d="M0 759h1920v574H0z" filter="url(#d)"/><g clip-path="url(#e)" stroke-miterlimit="10" style="mix-blend-mode:multiply" opacity=".25"><path d="M-76.777 724.568c218.502 380.752 520.513 180.636 732.422 81.993 236.083-110.266 404.985-73.825 550.025 168.069 79.11 131.63 141.9 186.92 233.57 198.86 88.22 11.31 119.92-72.89 215.68-170.9 130.28-134.142 342.51-209.538 493.82 54.66" stroke="url(#f)"/><path d="M-88.393 714.201c218.502 380.749 526.791 180.636 738.701 81.993 236.083-110.266 398.702-73.825 543.742 168.069 79.12 131.627 141.9 186.917 233.57 198.857 88.22 11.31 126.21-72.88 221.96-170.897 130.28-134.142 336.23-209.538 487.55 54.657" stroke="url(#g)"/><path d="M-100.637 704.777c218.816 380.743 530.245 180.635 741.841 81.992 236.083-110.266 395.566-73.824 540.606 168.07 79.11 131.631 141.9 186.921 233.57 198.861 88.22 11.3 132.48-72.89 228.23-170.902 130.29-134.141 329.96-209.537 481.27 54.662" stroke="url(#h)"/><path d="M-112.881 694.41c218.817 380.43 533.385 180.321 744.98 81.678 236.083-109.952 392.421-73.51 537.461 168.07 79.12 131.632 141.91 186.922 233.58 198.852 88.21 11.31 138.76-72.88 234.51-170.893 130.28-134.141 323.67-209.537 474.99 54.663" stroke="url(#i)"/><path d="M-124.81 684.043c218.816 380.747 536.524 180.635 748.119 81.993 236.083-110.267 389.291-73.825 534.331 168.069 79.11 131.625 141.9 186.915 233.57 198.855 88.21 11.31 145.04-72.88 240.79-170.896 130.28-134.141 317.08-209.537 468.71 54.346" stroke="url(#j)"/><path d="M-139.565 672.419c218.502 380.751 548.767 180.636 760.677 81.993 236.083-110.266 376.728-73.825 521.768 168.07 79.11 131.628 141.9 186.918 233.57 198.858 88.22 11.31 154.46-72.88 250.21-170.899 130.29-134.141 307.98-209.537 459.3 54.659" stroke="url(#k)"/><path d="M-153.693 663.309c218.502 380.751 558.186 177.18 770.095 78.537 236.083-110.266 367.31-70.369 512.348 171.525 79.12 131.629 141.9 186.919 233.57 198.859 88.22 11.31 162.94-72.26 256.18-172.784 127.77-137.283 301.7-207.652 453.01 56.547" stroke="url(#l)"/><path d="M-171.273 652.628c218.502 380.752 552.22 185.662 763.816 87.019C828.626 629.381 966.132 661.11 1111.17 902.69c79.12 131.63 148.18 186.92 239.85 198.86 88.22 11.31 163.88-72.89 259.63-170.9 130.29-134.142 291.97-209.538 443.6 54.661" stroke="url(#m)"/><path d="M-181.948 652.628C36.555 1033.38 363.994 833.263 575.59 734.621c236.083-110.266 379.868-73.825 524.91 168.069 79.11 131.63 141.9 186.92 233.57 198.86 88.22 11.31 163.88-72.89 259.63-170.9 130.28-134.142 298.56-209.538 449.87 54.661" stroke="url(#n)"/><path d="M-198.586 652.628C20.23 1033.38 335.74 833.578 547.65 734.935c236.083-109.952 391.169-74.139 536.21 167.755 79.11 131.63 141.9 186.92 233.57 198.86 88.22 11.31 163.88-72.89 259.63-170.9 130.28-134.142 303.58-208.281 455.21 55.604" stroke="url(#o)"/><path d="M-215.225 652.628C3.591 1033.38 311.88 833.263 523.476 734.621 759.559 624.355 922.18 660.796 1067.22 902.69c79.11 131.63 141.9 186.92 233.57 198.86 88.22 11.31 163.88-72.89 259.63-170.9 130.29-134.142 308.92-207.967 460.55 55.918" stroke="url(#p)"/><path d="M-231.864 652.628c218.816 380.752 520.827 180.635 732.423 81.993 236.083-110.266 404.982-73.825 550.021 168.069 79.11 131.63 141.9 186.92 233.57 198.86 88.22 11.31 163.88-72.89 259.63-170.9 130.6-134.142 315.83-204.511 467.46 59.374" stroke="url(#q)"/><path d="M-248.189 652.628c218.816 380.752 518.315 180.321 729.911 81.679C717.805 624.04 889.216 660.796 1034.26 902.69c79.11 131.63 141.9 186.92 233.57 198.86 88.22 11.31 163.87-72.89 259.63-170.9 130.28-134.142 322.73-203.569 474.05 60.316" stroke="url(#r)"/><path d="M-264.828 652.628c218.503 380.752 518.63 180.321 730.539 81.679C701.794 624.04 872.578 660.796 1017.62 902.69c79.11 131.63 141.9 186.92 233.57 198.86 88.22 11.31 163.88-72.89 259.63-170.9 130.28-134.142 327.75-202.626 479.07 61.259" stroke="url(#s)"/><path d="M-281.467 652.628c218.817 380.752 518.944 180.321 730.539 81.364C685.155 624.04 855.939 660.796 1000.98 902.69c79.11 131.63 141.9 186.92 233.57 198.86 88.22 11.31 163.88-72.89 259.63-170.9 130.28-134.142 334.66-201.684 485.98 62.201" stroke="url(#t)"/><path d="M-298.105 652.628c218.816 380.752 520.826 180.635 732.422 81.993C670.714 624.669 839.3 660.796 984.34 902.69c79.11 131.63 141.9 186.92 233.57 198.86 88.22 11.31 163.88-72.89 259.63-170.9 130.29-134.142 339.06-200.427 490.69 63.772" stroke="url(#u)"/><path d="M-314.744 652.628c218.816 380.752 522.71 182.206 734.306 83.564 236.083-110.267 403.099-75.396 548.14 166.498 79.108 131.63 141.898 186.92 233.568 198.86 88.22 11.31 163.88-72.89 259.63-170.9 130.29-134.142 344.39-198.228 495.71 65.971" stroke="url(#v)"/></g><g clip-path="url(#w)" stroke-miterlimit="10" style="mix-blend-mode:multiply" opacity=".25"><path d="M-77.777 760.568c218.502 380.752 520.513 180.636 732.422 81.993 236.083-110.266 404.985-73.825 550.025 168.069 79.11 131.63 141.9 186.92 233.57 198.86 88.22 11.31 119.92-72.89 215.68-170.9 130.28-134.142 342.51-209.538 493.82 54.66" stroke="url(#x)"/><path d="M-89.393 750.201c218.502 380.749 526.791 180.636 738.701 81.993 236.083-110.266 398.702-73.825 543.742 168.066 79.12 131.63 141.9 186.92 233.57 198.86 88.22 11.31 126.21-72.88 221.96-170.9 130.28-134.139 336.23-209.535 487.55 54.66" stroke="url(#y)"/><path d="M-101.637 740.777c218.816 380.743 530.245 180.635 741.841 81.992 236.083-110.266 395.566-73.824 540.606 168.07 79.11 131.631 141.9 186.921 233.57 198.861 88.22 11.3 132.48-72.89 228.23-170.9 130.29-134.143 329.96-209.539 481.27 54.66" stroke="url(#z)"/><path d="M-113.881 730.41c218.817 380.43 533.385 180.321 744.98 81.678 236.083-109.952 392.421-73.51 537.461 168.07 79.12 131.632 141.91 186.922 233.58 198.852 88.21 11.31 138.76-72.88 234.51-170.89 130.28-134.144 323.67-209.54 474.99 54.66" stroke="url(#A)"/><path d="M-125.81 720.043c218.816 380.747 536.524 180.635 748.119 81.993 236.083-110.267 389.291-73.825 534.331 168.069 79.11 131.625 141.9 186.915 233.57 198.855 88.21 11.31 145.04-72.88 240.79-170.896 130.28-134.141 317.08-209.537 468.71 54.346" stroke="url(#B)"/><path d="M-140.565 708.419c218.502 380.751 548.767 180.636 760.677 81.993 236.083-110.266 376.728-73.825 521.768 168.07 79.11 131.628 141.9 186.918 233.57 198.858 88.22 11.31 154.46-72.88 250.21-170.899 130.29-134.141 307.98-209.537 459.3 54.659" stroke="url(#C)"/><path d="M-154.693 699.309c218.502 380.751 558.186 177.18 770.095 78.537 236.083-110.266 367.31-70.369 512.348 171.525 79.12 131.629 141.9 186.919 233.57 198.859 88.22 11.31 162.94-72.26 256.18-172.784 127.77-137.283 301.7-207.652 453.01 56.544" stroke="url(#D)"/><path d="M-172.273 688.628c218.502 380.752 552.22 185.662 763.816 87.019C827.626 665.381 965.132 697.11 1110.17 938.69c79.12 131.63 148.18 186.92 239.85 198.86 88.22 11.31 163.88-72.89 259.63-170.9 130.29-134.142 291.97-209.538 443.6 54.66" stroke="url(#E)"/><path d="M-182.948 688.628C35.555 1069.38 362.994 869.263 574.59 770.621c236.083-110.266 379.868-73.825 524.91 168.069 79.11 131.63 141.9 186.92 233.57 198.86 88.22 11.31 163.88-72.89 259.63-170.9 130.28-134.142 298.56-209.538 449.87 54.66" stroke="url(#F)"/><path d="M-199.586 688.628C19.23 1069.38 334.74 869.578 546.65 770.935c236.083-109.952 391.169-74.139 536.21 167.755 79.11 131.63 141.9 186.92 233.57 198.86 88.22 11.31 163.88-72.89 259.63-170.9 130.28-134.142 303.58-208.281 455.21 55.6" stroke="url(#G)"/><path d="M-216.225 688.628C2.591 1069.38 310.88 869.263 522.476 770.621 758.559 660.355 921.18 696.796 1066.22 938.69c79.11 131.63 141.9 186.92 233.57 198.86 88.22 11.31 163.88-72.89 259.63-170.9 130.29-134.142 308.92-207.967 460.55 55.92" stroke="url(#H)"/><path d="M-232.864 688.628c218.816 380.752 520.827 180.635 732.423 81.993 236.083-110.266 404.982-73.825 550.021 168.069 79.11 131.63 141.9 186.92 233.57 198.86 88.22 11.31 163.88-72.89 259.63-170.9 130.6-134.142 315.83-204.511 467.46 59.37" stroke="url(#I)"/><path d="M-249.189 688.628c218.816 380.752 518.315 180.321 729.911 81.679C716.805 660.04 888.216 696.796 1033.26 938.69c79.11 131.63 141.9 186.92 233.57 198.86 88.22 11.31 163.87-72.89 259.63-170.9 130.28-134.142 322.73-203.569 474.05 60.32" stroke="url(#J)"/><path d="M-265.828 688.628c218.503 380.752 518.63 180.321 730.539 81.679C700.794 660.04 871.578 696.796 1016.62 938.69c79.11 131.63 141.9 186.92 233.57 198.86 88.22 11.31 163.88-72.89 259.63-170.9 130.28-134.142 327.75-202.626 479.07 61.26" stroke="url(#K)"/><path d="M-282.467 688.628c218.817 380.752 518.944 180.321 730.539 81.364C684.155 660.04 854.939 696.796 999.979 938.69c79.111 131.63 141.901 186.92 233.571 198.86 88.22 11.31 163.88-72.89 259.63-170.9 130.28-134.142 334.66-201.684 485.98 62.2" stroke="url(#L)"/><path d="M-299.105 688.628c218.816 380.752 520.826 180.635 732.422 81.993C669.714 660.669 838.3 696.796 983.34 938.69c79.11 131.63 141.9 186.92 233.57 198.86 88.22 11.31 163.88-72.89 259.63-170.9 130.29-134.142 339.06-200.427 490.69 63.77" stroke="url(#M)"/><path d="M-315.744 688.628c218.816 380.752 522.71 182.206 734.306 83.564 236.083-110.267 403.099-75.396 548.14 166.498 79.108 131.63 141.898 186.92 233.568 198.86 88.22 11.31 163.88-72.89 259.63-170.9 130.29-134.142 344.39-198.228 495.71 65.97" stroke="url(#N)"/></g><defs><filter id="d" x="-101" y="658" width="2122" height="776" filterUnits="userSpaceOnUse" color-interpolation-filters="sRGB"><feFlood flood-opacity="0" result="BackgroundImageFix"/><feGaussianBlur in="BackgroundImage" stdDeviation="32"/><feComposite in2="SourceAlpha" operator="in" result="effect1_backgroundBlur"/><feBlend in="SourceGraphic" in2="effect1_backgroundBlur" result="shape"/><feGaussianBlur stdDeviation="50.5" result="effect2_foregroundBlur"/></filter><radialGradient id="a" cx="0" cy="0" r="1" gradientUnits="userSpaceOnUse" gradientTransform="matrix(0 471.5 -1104 0 889 583.5)"><stop stop-color="#5E70A7" stop-opacity=".24"/><stop offset="1" stop-color="#213053" stop-opacity=".26"/></radialGradient><radialGradient id="b" cx="0" cy="0" r="1" gradientUnits="userSpaceOnUse" gradientTransform="matrix(0 433 -1015 0 986 433)"><stop stop-color="#5E70A7" stop-opacity=".24"/><stop offset="1" stop-color="#213053" stop-opacity=".26"/></radialGradient><linearGradient id="c" x1="868" y1="649" x2="868" y2="1411" gradientUnits="userSpaceOnUse"><stop stop-color="#263A55"/><stop offset="1" stop-color="#3A3958"/></linearGradient><linearGradient id="f" x1="-102.817" y1="919.011" x2="2131.55" y2="1202.41" gradientUnits="userSpaceOnUse"><stop stop-color="#041136"/><stop offset=".544" stop-color="#0E22D1"/><stop offset="1" stop-color="#041136"/></linearGradient><linearGradient id="g" x1="-114.444" y1="908.57" x2="2119.93" y2="1191.97" gradientUnits="userSpaceOnUse"><stop stop-color="#041136"/><stop offset=".538" stop-color="#0E22D1"/><stop offset="1" stop-color="#041136"/></linearGradient><linearGradient id="h" x1="-126.484" y1="898.814" x2="2107.88" y2="1182.21" gradientUnits="userSpaceOnUse"><stop stop-color="#041136"/><stop offset=".538" stop-color="#0E22D1"/><stop offset="1" stop-color="#041136"/></linearGradient><linearGradient id="i" x1="-138.78" y1="888.408" x2="2095.59" y2="1171.81" gradientUnits="userSpaceOnUse"><stop stop-color="#041136"/><stop offset=".538" stop-color="#0E22D1"/><stop offset="1" stop-color="#041136"/></linearGradient><linearGradient id="j" x1="-150.881" y1="878.216" x2="2083.49" y2="1161.61" gradientUnits="userSpaceOnUse"><stop stop-color="#041136"/><stop offset=".538" stop-color="#0E22D1"/><stop offset="1" stop-color="#041136"/></linearGradient><linearGradient id="k" x1="-165.575" y1="866.377" x2="2068.79" y2="1149.77" gradientUnits="userSpaceOnUse"><stop stop-color="#041136"/><stop offset=".538" stop-color="#0E22D1"/><stop offset="1" stop-color="#041136"/></linearGradient><linearGradient id="l" x1="-179.548" y1="855.973" x2="2054.82" y2="1139.37" gradientUnits="userSpaceOnUse"><stop stop-color="#041136"/><stop offset=".538" stop-color="#0E22D1"/><stop offset="1" stop-color="#041136"/></linearGradient><linearGradient id="m" x1="-197.428" y1="848.317" x2="2036.94" y2="1131.71" gradientUnits="userSpaceOnUse"><stop stop-color="#041136"/><stop offset=".538" stop-color="#0E22D1"/><stop offset="1" stop-color="#041136"/></linearGradient><linearGradient id="n" x1="-207.872" y1="846.787" x2="2026.5" y2="1130.18" gradientUnits="userSpaceOnUse"><stop stop-color="#041136"/><stop offset=".538" stop-color="#0E22D1"/><stop offset="1" stop-color="#041136"/></linearGradient><linearGradient id="o" x1="-224.492" y1="847.076" x2="2015.05" y2="1131.13" gradientUnits="userSpaceOnUse"><stop stop-color="#041136"/><stop offset=".538" stop-color="#0E22D1"/><stop offset="1" stop-color="#041136"/></linearGradient><linearGradient id="p" x1="-241.066" y1="847" x2="2003.85" y2="1131.73" gradientUnits="userSpaceOnUse"><stop stop-color="#041136"/><stop offset=".538" stop-color="#0E22D1"/><stop offset="1" stop-color="#041136"/></linearGradient><linearGradient id="q" x1="-257.659" y1="847.071" x2="1994.3" y2="1132.7" gradientUnits="userSpaceOnUse"><stop stop-color="#041136"/><stop offset=".538" stop-color="#0E22D1"/><stop offset="1" stop-color="#041136"/></linearGradient><linearGradient id="r" x1="-274.238" y1="847.038" x2="1984.65" y2="1133.54" gradientUnits="userSpaceOnUse"><stop stop-color="#041136"/><stop offset=".538" stop-color="#0E22D1"/><stop offset="1" stop-color="#041136"/></linearGradient><linearGradient id="s" x1="-290.812" y1="846.958" x2="1973.23" y2="1134.12" gradientUnits="userSpaceOnUse"><stop stop-color="#041136"/><stop offset=".538" stop-color="#0E22D1"/><stop offset="1" stop-color="#041136"/></linearGradient><linearGradient id="t" x1="-307.395" y1="846.958" x2="1963.42" y2="1134.98" gradientUnits="userSpaceOnUse"><stop stop-color="#041136"/><stop offset=".538" stop-color="#0E22D1"/><stop offset="1" stop-color="#041136"/></linearGradient><linearGradient id="u" x1="-323.994" y1="847.082" x2="1951.48" y2="1135.69" gradientUnits="userSpaceOnUse"><stop stop-color="#041136"/><stop offset=".538" stop-color="#0E22D1"/><stop offset="1" stop-color="#041136"/></linearGradient><linearGradient id="v" x1="-340.641" y1="847.575" x2="1940.29" y2="1136.88" gradientUnits="userSpaceOnUse"><stop stop-color="#041136"/><stop offset=".538" stop-color="#0E22D1"/><stop offset="1" stop-color="#041136"/></linearGradient><linearGradient id="x" x1="-103.817" y1="955.011" x2="2130.55" y2="1238.41" gradientUnits="userSpaceOnUse"><stop stop-color="#041136"/><stop offset=".544" stop-color="#0E22D1"/><stop offset="1" stop-color="#041136"/></linearGradient><linearGradient id="y" x1="-115.444" y1="944.57" x2="2118.93" y2="1227.97" gradientUnits="userSpaceOnUse"><stop stop-color="#041136"/><stop offset=".538" stop-color="#0E22D1"/><stop offset="1" stop-color="#041136"/></linearGradient><linearGradient id="z" x1="-127.484" y1="934.814" x2="2106.88" y2="1218.21" gradientUnits="userSpaceOnUse"><stop stop-color="#041136"/><stop offset=".538" stop-color="#0E22D1"/><stop offset="1" stop-color="#041136"/></linearGradient><linearGradient id="A" x1="-139.78" y1="924.408" x2="2094.59" y2="1207.81" gradientUnits="userSpaceOnUse"><stop stop-color="#041136"/><stop offset=".538" stop-color="#0E22D1"/><stop offset="1" stop-color="#041136"/></linearGradient><linearGradient id="B" x1="-151.881" y1="914.216" x2="2082.49" y2="1197.61" gradientUnits="userSpaceOnUse"><stop stop-color="#041136"/><stop offset=".538" stop-color="#0E22D1"/><stop offset="1" stop-color="#041136"/></linearGradient><linearGradient id="C" x1="-166.575" y1="902.377" x2="2067.79" y2="1185.77" gradientUnits="userSpaceOnUse"><stop stop-color="#041136"/><stop offset=".538" stop-color="#0E22D1"/><stop offset="1" stop-color="#041136"/></linearGradient><linearGradient id="D" x1="-180.548" y1="891.973" x2="2053.82" y2="1175.37" gradientUnits="userSpaceOnUse"><stop stop-color="#041136"/><stop offset=".538" stop-color="#0E22D1"/><stop offset="1" stop-color="#041136"/></linearGradient><linearGradient id="E" x1="-198.428" y1="884.317" x2="2035.94" y2="1167.71" gradientUnits="userSpaceOnUse"><stop stop-color="#041136"/><stop offset=".538" stop-color="#0E22D1"/><stop offset="1" stop-color="#041136"/></linearGradient><linearGradient id="F" x1="-208.872" y1="882.787" x2="2025.5" y2="1166.18" gradientUnits="userSpaceOnUse"><stop stop-color="#041136"/><stop offset=".538" stop-color="#0E22D1"/><stop offset="1" stop-color="#041136"/></linearGradient><linearGradient id="G" x1="-225.492" y1="883.076" x2="2014.05" y2="1167.13" gradientUnits="userSpaceOnUse"><stop stop-color="#041136"/><stop offset=".538" stop-color="#0E22D1"/><stop offset="1" stop-color="#041136"/></linearGradient><linearGradient id="H" x1="-242.066" y1="883" x2="2002.85" y2="1167.73" gradientUnits="userSpaceOnUse"><stop stop-color="#041136"/><stop offset=".538" stop-color="#0E22D1"/><stop offset="1" stop-color="#041136"/></linearGradient><linearGradient id="I" x1="-258.659" y1="883.071" x2="1993.3" y2="1168.7" gradientUnits="userSpaceOnUse"><stop stop-color="#041136"/><stop offset=".538" stop-color="#0E22D1"/><stop offset="1" stop-color="#041136"/></linearGradient><linearGradient id="J" x1="-275.238" y1="883.038" x2="1983.65" y2="1169.54" gradientUnits="userSpaceOnUse"><stop stop-color="#041136"/><stop offset=".538" stop-color="#0E22D1"/><stop offset="1" stop-color="#041136"/></linearGradient><linearGradient id="K" x1="-291.812" y1="882.958" x2="1972.23" y2="1170.12" gradientUnits="userSpaceOnUse"><stop stop-color="#041136"/><stop offset=".538" stop-color="#0E22D1"/><stop offset="1" stop-color="#041136"/></linearGradient><linearGradient id="L" x1="-308.395" y1="882.958" x2="1962.42" y2="1170.98" gradientUnits="userSpaceOnUse"><stop stop-color="#041136"/><stop offset=".538" stop-color="#0E22D1"/><stop offset="1" stop-color="#041136"/></linearGradient><linearGradient id="M" x1="-324.994" y1="883.082" x2="1950.48" y2="1171.69" gradientUnits="userSpaceOnUse"><stop stop-color="#041136"/><stop offset=".538" stop-color="#0E22D1"/><stop offset="1" stop-color="#041136"/></linearGradient><linearGradient id="N" x1="-341.641" y1="883.575" x2="1939.29" y2="1172.88" gradientUnits="userSpaceOnUse"><stop stop-color="#041136"/><stop offset=".538" stop-color="#0E22D1"/><stop offset="1" stop-color="#041136"/></linearGradient><clipPath id="e"><path fill="#fff" d="M-316 652h2466v524H-316z"/></clipPath><clipPath id="w"><path fill="#fff" d="M-317 688h2466v524H-317z"/></clipPath></defs></svg>