<svg width="49" height="49" viewBox="0 0 49 49" fill="none" xmlns="http://www.w3.org/2000/svg"><path d="M42.69 0H6.31C2.83 0 0 2.83 0 6.31v36.38C0 46.17 2.83 49 6.31 49h36.38c3.48 0 6.31-2.83 6.31-6.31V6.31C49 2.83 46.17 0 42.69 0zm4.605 42.69a4.61 4.61 0 0 1-4.605 4.605H6.31a4.61 4.61 0 0 1-4.605-4.605V6.31A4.61 4.61 0 0 1 6.31 1.705h36.38a4.61 4.61 0 0 1 4.605 4.605v36.38z" fill="#fff"/><path d="M44.51 23.647h-1.82a.853.853 0 0 0 0 1.706h1.82a.853.853 0 0 0 0-1.706zm-5.458 0h-13.7v-13.7a.853.853 0 0 0-1.705 0v13.7H4.491a.853.853 0 1 0 0 1.706h19.156v19.156a.853.853 0 1 0 1.706 0V25.353h13.699a.853.853 0 0 0 0-1.706zM24.5 3.638a.853.853 0 0 0-.853.853v1.82a.853.853 0 1 0 1.706 0V4.49a.853.853 0 0 0-.853-.853z" fill="#fff"/><path d="M18.134 11.824h-4.605V7.219a.853.853 0 0 0-1.705 0v4.605H7.219a.853.853 0 0 0 0 1.705h4.605v4.604a.853.853 0 0 0 1.705 0V13.53h4.604a.853.853 0 0 0 0-1.705z" fill="#1EB0DE"/><path d="M41.78 11.824H30.867a.853.853 0 0 0 0 1.705h10.915a.853.853 0 1 0 0-1.705z" fill="#fff"/><path d="M41.78 32.742H30.867a.853.853 0 0 0 0 1.706h10.915a.853.853 0 0 0 0-1.706zm0 5.458H30.867a.853.853 0 0 0 0 1.705h10.915a.853.853 0 0 0 0-1.706z" fill="#1EB0DE"/><path d="M13.882 36.324l3.945-3.945a.853.853 0 0 0-1.206-1.206l-3.945 3.945-3.944-3.945a.853.853 0 1 0-1.206 1.206l3.944 3.945-3.944 3.944a.853.853 0 0 0 1.206 1.206l3.944-3.945 3.945 3.945a.85.85 0 0 0 1.206 0 .853.853 0 0 0 0-1.206l-3.945-3.944z" fill="#fff"/></svg>