<svg width="57" height="57" viewBox="0 0 57 57" fill="none" xmlns="http://www.w3.org/2000/svg"><path d="M48.426 19.66c-.5-8.55-7.549-15.385-16.046-15.385-5.159 0-10.154 2.53-13.249 6.658-.07-.037-.145-.062-.216-.097a8.186 8.186 0 0 0-.904-.377 8.562 8.562 0 0 0-.584-.18c-.11-.03-.22-.06-.332-.085a8.521 8.521 0 0 0-.649-.118c-.097-.014-.192-.034-.29-.045a8.808 8.808 0 0 0-.956-.056c-4.714 0-8.55 3.835-8.55 8.55 0 .123.007.242.015.362C2.715 21.041 0 25.554 0 30.071c0 6.73 5.474 12.204 12.203 12.204H17.1a.95.95 0 1 0 0-1.9h-4.897C6.522 40.375 1.9 35.753 1.9 30.071c0-3.946 2.57-8.042 6.11-9.74l.54-.258v-.598c0-.117.008-.237.014-.356l.009-.166-.012-.18c-.004-.082-.011-.164-.011-.248a6.658 6.658 0 0 1 6.65-6.65 6.644 6.644 0 0 1 1.091.098c.255.042.506.097.753.168.032.01.066.015.097.025.272.082.537.188.796.306a6.49 6.49 0 0 1 .866.473 6.646 6.646 0 0 1 3.047 5.58.95.95 0 1 0 1.9 0 8.53 8.53 0 0 0-3.04-6.527c2.723-3.563 7.209-5.823 11.67-5.823 7.357 0 13.469 5.828 14.105 13.193-.97-.069-2.425-.104-3.879.118a.95.95 0 1 0 .286 1.879c2.113-.32 4.316-.02 4.45-.002 4.424.84 7.758 4.915 7.758 9.485 0 5.253-4.274 9.527-9.527 9.527H41.8a.95.95 0 1 0 0 1.9h3.773c6.3 0 11.427-5.126 11.427-11.427 0-5.214-3.636-9.891-8.574-11.189z" fill="#fff"/><path d="M30.123 29.254a.95.95 0 0 0-1.345 0l-7.6 7.6a.949.949 0 1 0 1.344 1.343l5.978-5.979v19.557a.95.95 0 1 0 1.9 0V32.218l5.979 5.979a.947.947 0 0 0 1.343 0 .949.949 0 0 0 0-1.344l-7.6-7.599z" fill="#1EB0DE"/></svg>