<svg width="61" height="61" viewBox="0 0 61 61" fill="none" xmlns="http://www.w3.org/2000/svg"><path d="M21.714 18.97h.005v-.706l.008.748A9.51 9.51 0 0 0 28.45 2.773 9.449 9.449 0 0 0 21.715 0h-.005a9.485 9.485 0 0 0 .004 18.97zM16.02 3.82a7.988 7.988 0 0 1 5.7-2.35h.003a8.017 8.017 0 0 1 .005 16.033h-.013A8.01 8.01 0 0 1 16.02 3.82zm23.968 26.869c-.961 0-1.92.091-2.864.273A13.693 13.693 0 0 0 23.98 20.929h-4.505c-7.524 0-13.606 6.15-13.606 13.679v14.047c0 .406.27.791.676.791H25.27A15.173 15.173 0 0 0 39.988 61c8.35 0 15.142-6.806 15.142-15.156 0-8.349-6.793-15.155-15.142-15.155zM7.338 47.978v-13.37c0-6.717 5.423-12.21 12.14-12.21h4.502A12.23 12.23 0 0 1 35.696 31.3a15.208 15.208 0 0 0-10.704 16.677H7.339zm32.65 11.525c-7.55 0-13.672-6.121-13.672-13.673 0-7.551 6.121-13.673 13.672-13.673 7.552 0 13.673 6.122 13.673 13.673-.008 7.548-6.125 13.665-13.673 13.673z" fill="#fff"/><path d="M37.113 40.494a.734.734 0 0 0-1.031-.123l-6.141 4.828a.734.734 0 0 0 0 1.155l6.141 4.829a.734.734 0 0 0 .908-1.155l-5.407-4.252 5.407-4.251a.734.734 0 0 0 .123-1.031zm5.563 0a.734.734 0 0 0 .124 1.031l5.407 4.252-5.407 4.252a.734.734 0 1 0 .908 1.154l6.141-4.829a.734.734 0 0 0 0-1.154l-6.141-4.83a.734.734 0 0 0-1.032.124zm-1.582-2.606a.735.735 0 0 0-.836.616L38.08 52.908a.734.734 0 1 0 1.452.22l2.18-14.404a.734.734 0 0 0-.616-.836z" fill="#1EB0DE"/></svg>