<svg width="488" height="803" viewBox="0 0 488 803" fill="none" xmlns="http://www.w3.org/2000/svg"><g opacity=".08"><path d="M359 729.054V803L14 656.087v-67.579l345-146.913v74.926l-79.389 33.789v144.954L359 729.054zM102.21 622.787l119.084 50.44v-100.39l-119.084 49.95z" fill="url(#a)" style="mix-blend-mode:multiply"/><path d="M359 325.764v70.518H15.96V246.431c0-36.891 9.638-65.947 28.914-87.168 18.948-21.547 43.778-32.32 74.488-32.32 31.037 0 56.03 10.773 74.979 32.32 19.275 21.221 28.913 50.277 28.913 87.168v79.333H359zm-281.293 0h85.27v-74.436c0-16.976-3.593-30.198-10.781-39.666-7.514-9.468-18.132-14.201-31.854-14.201-13.721 0-24.176 4.733-31.363 14.201-7.514 9.468-11.272 22.69-11.272 39.666v74.436z" fill="url(#b)" style="mix-blend-mode:multiply"/><path d="M359 1v70.028H15.96V1H359z" fill="url(#c)" style="mix-blend-mode:multiply"/><path d="M416.482 528h-15.77v-71.895h15.77v27.19h69.806v17.637h-69.806V528z" fill="url(#d)" style="mix-blend-mode:multiply"/><path d="M486.288 425.307v17.636h-85.576V403.26c0-9.145 2.363-16.33 7.09-21.556 4.646-5.307 10.718-7.961 18.216-7.961 5.705 0 10.677 1.592 14.915 4.777 4.156 3.103 7.09 7.43 8.802 12.983l36.553-26.456v20.454l-34.597 24.986v14.82h34.597zm-70.173 0h20.783V404.24c0-4.001-.896-7.103-2.689-9.308-1.793-2.286-4.361-3.429-7.702-3.429-3.26 0-5.787 1.143-7.58 3.429-1.874 2.205-2.812 5.307-2.812 9.308v21.067z" fill="url(#e)" style="mix-blend-mode:multiply"/><path d="M486.288 342.454v18.494l-86.065-36.744v-16.902l86.065-36.743v18.739l-19.804 8.451v36.254l19.804 8.451zm-64.06-26.578l29.707 12.615v-25.108l-29.707 12.493z" fill="url(#f)" style="mix-blend-mode:multiply"/><path d="M486.288 241.589v17.637h-85.576v-62.832h15.77v45.195h17.36v-34.907h15.526v34.907h36.92z" fill="url(#g)" style="mix-blend-mode:multiply"/><path d="M486.288 164.681v17.637h-85.576v-62.832h15.77v45.195h17.36v-34.906h15.526v34.906h36.92z" fill="url(#h)" style="mix-blend-mode:multiply"/><path d="M486.288 87.283v17.515h-85.576V87.283h85.576z" fill="url(#i)" style="mix-blend-mode:multiply"/><path d="M488 24.373c0 13.31-4.157 24.373-12.47 33.192-8.476 8.818-19.153 13.228-32.03 13.228-13.04 0-23.717-4.369-32.03-13.106C403.157 48.87 399 37.764 399 24.373c0-8.328 1.793-15.881 5.379-22.658h17.727c-4.401 6.613-6.602 14.126-6.602 22.536 0 8.083 2.649 14.901 7.947 20.454 5.216 5.389 11.899 8.083 20.049 8.083s14.874-2.776 20.172-8.328c5.216-5.471 7.824-12.452 7.824-20.944 0-9.39-2.486-17.229-7.458-23.516h17.727C485.922 6.94 488 15.065 488 24.373z" fill="url(#j)" style="mix-blend-mode:multiply"/></g><g opacity=".2"><path d="M345 729.054V803L0 656.087v-67.579l345-146.913v74.926l-79.389 33.789v144.954L345 729.054zM88.21 622.787l119.084 50.44v-100.39L88.21 622.787z" fill="url(#k)" style="mix-blend-mode:multiply"/><path d="M345 325.764v70.518H1.96V246.431c0-36.891 9.638-65.947 28.914-87.168 18.948-21.547 43.778-32.32 74.488-32.32 31.037 0 56.03 10.773 74.979 32.32 19.275 21.221 28.913 50.277 28.913 87.168v79.333H345zm-281.293 0h85.27v-74.436c0-16.976-3.593-30.198-10.781-39.666-7.514-9.468-18.132-14.201-31.854-14.201-13.721 0-24.176 4.733-31.363 14.201-7.514 9.468-11.272 22.69-11.272 39.666v74.436z" fill="url(#l)" style="mix-blend-mode:multiply"/><path d="M345 1v70.028H1.96V1H345z" fill="url(#m)" style="mix-blend-mode:multiply"/><path d="M402.482 528h-15.77v-71.895h15.77v27.19h69.806v17.637h-69.806V528z" fill="url(#n)" style="mix-blend-mode:multiply"/><path d="M472.288 425.307v17.636h-85.576V403.26c0-9.145 2.363-16.33 7.09-21.556 4.646-5.307 10.718-7.961 18.216-7.961 5.705 0 10.677 1.592 14.915 4.777 4.156 3.103 7.09 7.43 8.802 12.983l36.553-26.456v20.454l-34.597 24.986v14.82h34.597zm-70.173 0h20.783V404.24c0-4.001-.896-7.103-2.689-9.308-1.793-2.286-4.361-3.429-7.702-3.429-3.26 0-5.787 1.143-7.58 3.429-1.874 2.205-2.812 5.307-2.812 9.308v21.067z" fill="url(#o)" style="mix-blend-mode:multiply"/><path d="M472.288 342.454v18.494l-86.065-36.744v-16.902l86.065-36.743v18.739l-19.804 8.451v36.254l19.804 8.451zm-64.06-26.578l29.707 12.615v-25.108l-29.707 12.493z" fill="url(#p)" style="mix-blend-mode:multiply"/><path d="M472.288 241.589v17.637h-85.576v-62.832h15.77v45.195h17.36v-34.907h15.526v34.907h36.92z" fill="url(#q)" style="mix-blend-mode:multiply"/><path d="M472.288 164.681v17.637h-85.576v-62.832h15.77v45.195h17.36v-34.906h15.526v34.906h36.92z" fill="url(#r)" style="mix-blend-mode:multiply"/><path d="M472.288 87.283v17.515h-85.576V87.283h85.576z" fill="url(#s)" style="mix-blend-mode:multiply"/><path d="M474 24.373c0 13.31-4.157 24.373-12.47 33.192-8.476 8.818-19.153 13.228-32.03 13.228-13.04 0-23.717-4.369-32.03-13.106C389.157 48.87 385 37.764 385 24.373c0-8.328 1.793-15.881 5.379-22.658h17.727c-4.401 6.613-6.602 14.126-6.602 22.536 0 8.083 2.649 14.901 7.947 20.454 5.216 5.389 11.899 8.083 20.049 8.083s14.874-2.776 20.172-8.328c5.216-5.471 7.824-12.452 7.824-20.944 0-9.39-2.486-17.229-7.458-23.516h17.727C471.922 6.94 474 15.065 474 24.373z" fill="url(#t)" style="mix-blend-mode:multiply"/></g><defs><radialGradient id="a" cx="0" cy="0" r="1" gradientUnits="userSpaceOnUse" gradientTransform="matrix(172.5 0 0 401 186.5 402)"><stop stop-color="#373E7B"/><stop offset="1" stop-color="#213053"/></radialGradient><radialGradient id="b" cx="0" cy="0" r="1" gradientUnits="userSpaceOnUse" gradientTransform="matrix(172.5 0 0 401 186.5 402)"><stop stop-color="#373E7B"/><stop offset="1" stop-color="#213053"/></radialGradient><radialGradient id="c" cx="0" cy="0" r="1" gradientUnits="userSpaceOnUse" gradientTransform="matrix(172.5 0 0 401 186.5 402)"><stop stop-color="#373E7B"/><stop offset="1" stop-color="#213053"/></radialGradient><radialGradient id="d" cx="0" cy="0" r="1" gradientUnits="userSpaceOnUse" gradientTransform="matrix(44.5 0 0 264 443.5 264)"><stop stop-color="#373E7B"/><stop offset="1" stop-color="#213053"/></radialGradient><radialGradient id="e" cx="0" cy="0" r="1" gradientUnits="userSpaceOnUse" gradientTransform="matrix(44.5 0 0 264 443.5 264)"><stop stop-color="#373E7B"/><stop offset="1" stop-color="#213053"/></radialGradient><radialGradient id="f" cx="0" cy="0" r="1" gradientUnits="userSpaceOnUse" gradientTransform="matrix(44.5 0 0 264 443.5 264)"><stop stop-color="#373E7B"/><stop offset="1" stop-color="#213053"/></radialGradient><radialGradient id="g" cx="0" cy="0" r="1" gradientUnits="userSpaceOnUse" gradientTransform="matrix(44.5 0 0 264 443.5 264)"><stop stop-color="#373E7B"/><stop offset="1" stop-color="#213053"/></radialGradient><radialGradient id="h" cx="0" cy="0" r="1" gradientUnits="userSpaceOnUse" gradientTransform="matrix(44.5 0 0 264 443.5 264)"><stop stop-color="#373E7B"/><stop offset="1" stop-color="#213053"/></radialGradient><radialGradient id="i" cx="0" cy="0" r="1" gradientUnits="userSpaceOnUse" gradientTransform="matrix(44.5 0 0 264 443.5 264)"><stop stop-color="#373E7B"/><stop offset="1" stop-color="#213053"/></radialGradient><radialGradient id="j" cx="0" cy="0" r="1" gradientUnits="userSpaceOnUse" gradientTransform="matrix(44.5 0 0 264 443.5 264)"><stop stop-color="#373E7B"/><stop offset="1" stop-color="#213053"/></radialGradient><radialGradient id="k" cx="0" cy="0" r="1" gradientUnits="userSpaceOnUse" gradientTransform="matrix(172.5 0 0 401 172.5 402)"><stop stop-color="#373E7B"/><stop offset="1" stop-color="#213053"/></radialGradient><radialGradient id="l" cx="0" cy="0" r="1" gradientUnits="userSpaceOnUse" gradientTransform="matrix(172.5 0 0 401 172.5 402)"><stop stop-color="#373E7B"/><stop offset="1" stop-color="#213053"/></radialGradient><radialGradient id="m" cx="0" cy="0" r="1" gradientUnits="userSpaceOnUse" gradientTransform="matrix(172.5 0 0 401 172.5 402)"><stop stop-color="#373E7B"/><stop offset="1" stop-color="#213053"/></radialGradient><radialGradient id="n" cx="0" cy="0" r="1" gradientUnits="userSpaceOnUse" gradientTransform="matrix(44.5 0 0 264 429.5 264)"><stop stop-color="#373E7B"/><stop offset="1" stop-color="#213053"/></radialGradient><radialGradient id="o" cx="0" cy="0" r="1" gradientUnits="userSpaceOnUse" gradientTransform="matrix(44.5 0 0 264 429.5 264)"><stop stop-color="#373E7B"/><stop offset="1" stop-color="#213053"/></radialGradient><radialGradient id="p" cx="0" cy="0" r="1" gradientUnits="userSpaceOnUse" gradientTransform="matrix(44.5 0 0 264 429.5 264)"><stop stop-color="#373E7B"/><stop offset="1" stop-color="#213053"/></radialGradient><radialGradient id="q" cx="0" cy="0" r="1" gradientUnits="userSpaceOnUse" gradientTransform="matrix(44.5 0 0 264 429.5 264)"><stop stop-color="#373E7B"/><stop offset="1" stop-color="#213053"/></radialGradient><radialGradient id="r" cx="0" cy="0" r="1" gradientUnits="userSpaceOnUse" gradientTransform="matrix(44.5 0 0 264 429.5 264)"><stop stop-color="#373E7B"/><stop offset="1" stop-color="#213053"/></radialGradient><radialGradient id="s" cx="0" cy="0" r="1" gradientUnits="userSpaceOnUse" gradientTransform="matrix(44.5 0 0 264 429.5 264)"><stop stop-color="#373E7B"/><stop offset="1" stop-color="#213053"/></radialGradient><radialGradient id="t" cx="0" cy="0" r="1" gradientUnits="userSpaceOnUse" gradientTransform="matrix(44.5 0 0 264 429.5 264)"><stop stop-color="#373E7B"/><stop offset="1" stop-color="#213053"/></radialGradient></defs></svg>