<svg width="538" height="301" viewBox="0 0 538 301" fill="none" xmlns="http://www.w3.org/2000/svg"><circle cx="158.5" cy="171.5" r="5.5" fill="#DE1ECB"/><circle cx="218.5" cy="127.5" r="5.5" fill="#3B37FF"/><circle cx="415.5" cy="41.5" r="5.5" fill="#3B37FF"/><circle cx="350.5" cy="81.5" r="5.5" fill="#3B37FF"/><circle cx="412.5" cy="86.5" r="5.5" fill="#373E7B"/><circle cx="287.5" cy="97.5" r="5.5" fill="#373E7B"/><circle cx="415.5" cy="149.5" r="5.5" fill="#DE1ECB"/><circle cx="218.5" cy="86.5" r="5.5" fill="#DE1ECB"/><path d="M95.561 169.667l62.647-44.375 60.036 24.798 66.561-53.51 61.341 33.933 65.257-45.68 71.782 65.257h20.882" stroke="#373E7B" stroke-width="3"/><path d="M59.018 198.38h30.018l69.172-26.103 60.036-87.444 69.171 44.375 61.341-32.629 66.562 54.816 70.477-92.664h15.661" stroke="#DE1ECB" stroke-width="3"/><path stroke="#1EB0DE" stroke-opacity=".45" d="M.787.5H537.5v299.18H.787z"/><path opacity=".25" stroke="#CFCFCF" stroke-width="2" d="M55.102 82.528h443.744M55.102 126.903h443.744M55.102 171.277h443.744M55.102 215.651h443.744"/><path d="M56.408 133.123h40.459l62.646 16.967 58.731-22.187 69.172 18.271 62.646-63.95 65.256-40.46 66.562 61.341h18.271" stroke="#3B37FF" stroke-width="3"/></svg>