<svg width="183" height="25" viewBox="0 0 183 25" fill="none" xmlns="http://www.w3.org/2000/svg"><path d="M93.846 18.908V5.284h8.451v1.53h-6.714v4.682h6.164v1.511h-6.164v5.9h-1.737zm10.438 0V5.284h1.736v13.624h-1.736zm4.437 0V5.284h1.688l7.621 10.697h.087V5.284h1.717v13.624h-1.688l-7.621-10.66h-.087v10.66h-1.717zm21.464-3.899h-5.537l-1.399 3.899h-1.823l5.132-13.624h1.717l5.132 13.624h-1.823l-1.399-3.9zm-5.026-1.445h4.515l-2.229-6.212h-.057l-2.229 6.212zm9.84 5.344V5.284h1.688l7.621 10.697h.087V5.284h1.717v13.624h-1.688l-7.621-10.66h-.087v10.66h-1.717zm19.544.226c-1.923 0-3.447-.635-4.573-1.907-1.132-1.265-1.697-2.977-1.697-5.136 0-2.14.569-3.845 1.707-5.117 1.138-1.278 2.659-1.917 4.563-1.917 1.518 0 2.804.413 3.859 1.237 1.061.831 1.701 1.926 1.919 3.286h-1.756a3.699 3.699 0 0 0-1.427-2.143c-.74-.542-1.605-.812-2.595-.812-1.357 0-2.444.497-3.261 1.491-.816.995-1.225 2.32-1.225 3.975 0 1.675.405 3.006 1.216 3.994.81.988 1.903 1.482 3.279 1.482 1.023 0 1.885-.23 2.586-.689.701-.46 1.177-1.105 1.427-1.935h1.756c-.321 1.347-.981 2.382-1.977 3.106-.997.724-2.264 1.085-3.801 1.085zM171 18.908h-8.624V5.284H171v1.53h-6.888v4.37h6.531v1.511h-6.531v4.683H171v1.53zm3.376-3.748c.084.736.454 1.328 1.11 1.775.649.447 1.472.67 2.469.67.939 0 1.717-.217 2.335-.652.611-.44.916-.994.916-1.661 0-.573-.215-1.048-.646-1.426-.425-.365-1.106-.667-2.045-.906l-1.785-.453c-1.286-.321-2.225-.771-2.817-1.35-.591-.573-.887-1.322-.887-2.247 0-1.133.46-2.059 1.379-2.776.913-.718 2.094-1.077 3.541-1.077 1.382 0 2.527.362 3.434 1.086.907.73 1.379 1.665 1.418 2.804h-1.737c-.077-.73-.398-1.306-.964-1.727-.566-.422-1.302-.633-2.209-.633-.901 0-1.637.208-2.209.623-.566.416-.849.957-.849 1.624 0 .516.209.938.627 1.265.411.334 1.09.62 2.035.86l1.457.377c1.44.352 2.476.821 3.106 1.407.63.585.945 1.366.945 2.341 0 1.246-.466 2.232-1.398 2.955-.939.73-2.209 1.095-3.811 1.095-1.479 0-2.688-.361-3.627-1.085-.939-.724-1.45-1.687-1.534-2.89h1.746z" fill="#fff"/><path d="M10.848 20.308H0V3.884h3.511v13.578h7.337v2.846zm13.195 0H12.93V3.884h11.114v2.834H16.44v3.961h7.173v2.64H16.44v4.143h7.603v2.846zm12.243-3.984h-5.895l-1.278 3.983h-3.605l5.825-16.423h4.128l5.836 16.424h-3.732l-1.279-3.984zm-5.139-2.572h4.383l-2.15-6.726h-.082l-2.15 6.726zm18.335-9.868c2.527 0 4.488.706 5.883 2.117 1.41 1.427 2.116 3.437 2.116 6.032 0 2.603-.705 4.633-2.116 6.09-1.403 1.456-3.364 2.184-5.883 2.184h-6.464V3.885h6.464zm-2.953 13.578h2.534c1.574 0 2.771-.459 3.593-1.377.83-.926 1.244-2.272 1.244-4.04 0-1.715-.419-3.031-1.256-3.95-.837-.918-2.03-1.377-3.58-1.377h-2.535v10.744z" fill="#1EB0DE"/><rect x="63.346" y=".365" width="24.635" height="24.635" rx="1" fill="#1EB0DE"/><rect x="67.546" y="15.615" width="2.346" height="4.692" rx=".3" fill="#fff"/><rect x="67.547" y="12.096" width="2.346" height="2.346" rx=".3" fill="#fff"/><rect x="74.699" y="10.923" width="2.346" height="9.385" rx=".3" fill="#fff"/><rect x="74.699" y="7.404" width="2.346" height="2.346" rx=".3" fill="#fff"/><rect x="81.85" y="7.404" width="2.346" height="12.904" rx=".3" fill="#fff"/><rect x="81.85" y="3.885" width="2.346" height="2.346" rx=".3" fill="#fff"/></svg>