<svg width="1319" height="584" viewBox="0 0 1319 584" fill="none" xmlns="http://www.w3.org/2000/svg"><g opacity=".35"><path d="M8.64 318.552V281.4h169.056v37.152H113.76V483H72.288V318.552H8.64zM250.117 483h-41.472V281.4h93.312c21.504 0 38.4 5.568 50.688 16.704 12.48 10.944 18.72 25.248 18.72 42.912 0 13.44-3.744 25.152-11.232 35.136-7.296 9.792-17.472 16.704-30.528 20.736L391.813 483h-48.096l-58.752-81.504h-34.848V483zm0-165.312v48.96h49.536c9.408 0 16.704-2.112 21.888-6.336 5.376-4.224 8.064-10.272 8.064-18.144 0-7.68-2.688-13.632-8.064-17.856-5.184-4.416-12.48-6.624-21.888-6.624h-49.536zM444.94 483h-43.488l86.4-202.752h39.744L613.996 483h-44.064l-19.872-46.656h-85.248L444.94 483zm62.496-150.912l-29.664 69.984h59.04l-29.376-69.984zM682.117 483h-41.472V281.4h147.744v37.152H682.117v40.896h82.08v36.576h-82.08V483zm180.844 0h-41.472V281.4h147.744v37.152H862.961v40.896h82.08v36.576h-82.08V483zm181.999 0h-41.19V281.4h41.19V483zm147.92 4.032c-31.29 0-57.31-9.792-78.04-29.376-20.74-19.968-31.11-45.12-31.11-75.456 0-30.72 10.27-55.872 30.82-75.456 20.73-19.584 46.85-29.376 78.33-29.376 19.59 0 37.35 4.224 53.28 12.672v41.76c-15.55-10.368-33.21-15.552-52.99-15.552-19.01 0-35.04 6.24-48.09 18.72-12.68 12.288-19.01 28.032-19.01 47.232s6.53 35.04 19.58 47.52c12.87 12.288 29.28 18.432 49.25 18.432 22.08 0 40.51-5.856 55.3-17.568v41.76c-16.32 9.792-35.43 14.688-57.32 14.688z" fill="#2A3E67"/><path d="M8.64 318.552V281.4h169.056v37.152H113.76V483H72.288V318.552H8.64zM250.117 483h-41.472V281.4h93.312c21.504 0 38.4 5.568 50.688 16.704 12.48 10.944 18.72 25.248 18.72 42.912 0 13.44-3.744 25.152-11.232 35.136-7.296 9.792-17.472 16.704-30.528 20.736L391.813 483h-48.096l-58.752-81.504h-34.848V483zm0-165.312v48.96h49.536c9.408 0 16.704-2.112 21.888-6.336 5.376-4.224 8.064-10.272 8.064-18.144 0-7.68-2.688-13.632-8.064-17.856-5.184-4.416-12.48-6.624-21.888-6.624h-49.536zM444.94 483h-43.488l86.4-202.752h39.744L613.996 483h-44.064l-19.872-46.656h-85.248L444.94 483zm62.496-150.912l-29.664 69.984h59.04l-29.376-69.984zM682.117 483h-41.472V281.4h147.744v37.152H682.117v40.896h82.08v36.576h-82.08V483zm180.844 0h-41.472V281.4h147.744v37.152H862.961v40.896h82.08v36.576h-82.08V483zm181.999 0h-41.19V281.4h41.19V483zm147.92 4.032c-31.29 0-57.31-9.792-78.04-29.376-20.74-19.968-31.11-45.12-31.11-75.456 0-30.72 10.27-55.872 30.82-75.456 20.73-19.584 46.85-29.376 78.33-29.376 19.59 0 37.35 4.224 53.28 12.672v41.76c-15.55-10.368-33.21-15.552-52.99-15.552-19.01 0-35.04 6.24-48.09 18.72-12.68 12.288-19.01 28.032-19.01 47.232s6.53 35.04 19.58 47.52c12.87 12.288 29.28 18.432 49.25 18.432 22.08 0 40.51-5.856 55.3-17.568v41.76c-16.32 9.792-35.43 14.688-57.32 14.688z" fill="#2D3952"/></g><g opacity=".35"><path d="M33.64 96.552V59.4h169.056v37.152H138.76V261H97.288V96.552H33.64zM275.117 261h-41.472V59.4h93.312c21.504 0 38.4 5.568 50.688 16.704 12.48 10.944 18.72 25.248 18.72 42.912 0 13.44-3.744 25.152-11.232 35.136-7.296 9.792-17.472 16.704-30.528 20.736L416.813 261h-48.096l-58.752-81.504h-34.848V261zm0-165.312v48.96h49.536c9.408 0 16.704-2.112 21.888-6.336 5.376-4.224 8.064-10.272 8.064-18.144 0-7.68-2.688-13.632-8.064-17.856-5.184-4.416-12.48-6.624-21.888-6.624h-49.536zM469.94 261h-43.488l86.4-202.752h39.744L638.996 261h-44.064l-19.872-46.656h-85.248L469.94 261zm62.496-150.912l-29.664 69.984h59.04l-29.376-69.984zM707.117 261h-41.472V59.4h147.744v37.152H707.117v40.896h82.08v36.576h-82.08V261zm180.844 0h-41.472V59.4h147.744v37.152H887.961v40.896h82.08v36.576h-82.08V261zm181.999 0h-41.19V59.4h41.19V261zm147.92 4.032c-31.29 0-57.31-9.792-78.04-29.376-20.74-19.968-31.11-45.12-31.11-75.456 0-30.72 10.27-55.872 30.82-75.456 20.73-19.584 46.85-29.376 78.33-29.376 19.59 0 37.35 4.224 53.28 12.672v41.76c-15.55-10.368-33.21-15.552-52.99-15.552-19.01 0-35.04 6.24-48.09 18.72-12.68 12.288-19.01 28.032-19.01 47.232s6.53 35.04 19.58 47.52c12.87 12.288 29.28 18.432 49.25 18.432 22.08 0 40.51-5.856 55.3-17.568v41.76c-16.32 9.792-35.43 14.688-57.32 14.688z" fill="#2A3E67"/><path d="M33.64 96.552V59.4h169.056v37.152H138.76V261H97.288V96.552H33.64zM275.117 261h-41.472V59.4h93.312c21.504 0 38.4 5.568 50.688 16.704 12.48 10.944 18.72 25.248 18.72 42.912 0 13.44-3.744 25.152-11.232 35.136-7.296 9.792-17.472 16.704-30.528 20.736L416.813 261h-48.096l-58.752-81.504h-34.848V261zm0-165.312v48.96h49.536c9.408 0 16.704-2.112 21.888-6.336 5.376-4.224 8.064-10.272 8.064-18.144 0-7.68-2.688-13.632-8.064-17.856-5.184-4.416-12.48-6.624-21.888-6.624h-49.536zM469.94 261h-43.488l86.4-202.752h39.744L638.996 261h-44.064l-19.872-46.656h-85.248L469.94 261zm62.496-150.912l-29.664 69.984h59.04l-29.376-69.984zM707.117 261h-41.472V59.4h147.744v37.152H707.117v40.896h82.08v36.576h-82.08V261zm180.844 0h-41.472V59.4h147.744v37.152H887.961v40.896h82.08v36.576h-82.08V261zm181.999 0h-41.19V59.4h41.19V261zm147.92 4.032c-31.29 0-57.31-9.792-78.04-29.376-20.74-19.968-31.11-45.12-31.11-75.456 0-30.72 10.27-55.872 30.82-75.456 20.73-19.584 46.85-29.376 78.33-29.376 19.59 0 37.35 4.224 53.28 12.672v41.76c-15.55-10.368-33.21-15.552-52.99-15.552-19.01 0-35.04 6.24-48.09 18.72-12.68 12.288-19.01 28.032-19.01 47.232s6.53 35.04 19.58 47.52c12.87 12.288 29.28 18.432 49.25 18.432 22.08 0 40.51-5.856 55.3-17.568v41.76c-16.32 9.792-35.43 14.688-57.32 14.688z" fill="#21385A"/></g></svg>