<svg width="183" height="25" viewBox="0 0 183 25" fill="none" xmlns="http://www.w3.org/2000/svg">
<path d="M93.8462 18.9079V5.28409H102.297V6.81358H95.5826V11.4965H101.747V13.0071H95.5826V18.9079H93.8462Z" fill="white"/>
<path d="M104.284 18.9079V5.28409H106.02V18.9079H104.284Z" fill="white"/>
<path d="M108.721 18.9079V5.28409H110.409L118.03 15.9811H118.117V5.28409H119.834V18.9079H118.146L110.525 8.24866H110.438V18.9079H108.721Z" fill="white"/>
<path d="M130.185 15.0086H124.648L123.249 18.9079H121.426L126.558 5.28409H128.275L133.407 18.9079H131.584L130.185 15.0086ZM125.159 13.5641H129.674L127.445 7.35173H127.388L125.159 13.5641Z" fill="white"/>
<path d="M134.999 18.9079V5.28409H136.687L144.308 15.9811H144.395V5.28409H146.112V18.9079H144.424L136.803 8.24866H136.716V18.9079H134.999Z" fill="white"/>
<path d="M154.543 19.1345C152.62 19.1345 151.096 18.4988 149.97 17.2273C148.838 15.9622 148.273 14.2502 148.273 12.0913C148.273 9.95124 148.842 8.24551 149.98 6.97408C151.118 5.69636 152.639 5.0575 154.543 5.0575C156.061 5.0575 157.347 5.46977 158.402 6.29431C159.463 7.12514 160.103 8.22033 160.321 9.57988H158.565C158.34 8.6861 157.865 7.97171 157.138 7.4367C156.398 6.8954 155.533 6.62475 154.543 6.62475C153.186 6.62475 152.099 7.12199 151.282 8.11648C150.466 9.11096 150.057 10.4359 150.057 12.0913C150.057 13.7655 150.462 15.0967 151.273 16.0849C152.083 17.0731 153.176 17.5672 154.552 17.5672C155.575 17.5672 156.437 17.3375 157.138 16.878C157.839 16.4185 158.315 15.7734 158.565 14.9425H160.321C160 16.2895 159.34 17.3249 158.344 18.0487C157.347 18.7726 156.08 19.1345 154.543 19.1345Z" fill="white"/>
<path d="M171 18.9079H162.376V5.28409H171V6.81358H164.112V11.1849H170.643V12.6955H164.112V17.3784H171V18.9079Z" fill="white"/>
<path d="M174.376 15.1597C174.46 15.8961 174.83 16.4878 175.486 16.9347C176.135 17.3815 176.958 17.605 177.955 17.605C178.894 17.605 179.672 17.3878 180.29 16.9535C180.901 16.5129 181.206 15.9591 181.206 15.2919C181.206 14.7191 180.991 14.2439 180.56 13.8662C180.135 13.5012 179.454 13.199 178.515 12.9599L176.73 12.5067C175.444 12.1857 174.505 11.7356 173.913 11.1566C173.322 10.5838 173.026 9.8348 173.026 8.90955C173.026 7.77659 173.486 6.85134 174.405 6.1338C175.318 5.41626 176.499 5.0575 177.946 5.0575C179.328 5.0575 180.473 5.41941 181.38 6.14325C182.287 6.87337 182.759 7.80806 182.798 8.94731H181.061C180.984 8.21719 180.663 7.64127 180.097 7.21955C179.531 6.79784 178.795 6.58699 177.888 6.58699C176.987 6.58699 176.251 6.7947 175.679 7.21011C175.113 7.62553 174.83 8.16683 174.83 8.83402C174.83 9.35014 175.039 9.77185 175.457 10.0992C175.868 10.4327 176.547 10.7191 177.492 10.9583L178.949 11.336C180.389 11.6884 181.425 12.1574 182.055 12.7427C182.685 13.3281 183 14.1086 183 15.0842C183 16.3304 182.534 17.3155 181.602 18.0393C180.663 18.7694 179.393 19.1345 177.791 19.1345C176.312 19.1345 175.103 18.7726 174.164 18.0487C173.225 17.3249 172.714 16.3619 172.63 15.1597H174.376Z" fill="white"/>
<path d="M10.8475 20.3075H0V3.8844H3.51118V17.4622H10.8475V20.3075Z" fill="#1EB0DE"/>
<path d="M24.0434 20.3075H12.9286V3.8844H24.0434V6.71833H16.4398V10.679H23.6133V13.3195H16.4398V17.4622H24.0434V20.3075Z" fill="#1EB0DE"/>
<path d="M36.2861 16.3241H30.3915L29.1126 20.3075H25.5084L31.3332 3.8844H35.4606L41.297 20.3075H37.565L36.2861 16.3241ZM31.1472 13.7519H35.5303L33.3795 7.02563H33.2981L31.1472 13.7519Z" fill="#1EB0DE"/>
<path d="M49.482 3.8844C52.0089 3.8844 53.9698 4.59004 55.365 6.00131C56.7757 7.42776 57.481 9.43845 57.481 12.0334C57.481 14.6359 56.7757 16.6655 55.365 18.1223C53.9621 19.5791 52.0011 20.3075 49.482 20.3075H43.0178V3.8844H49.482ZM46.5289 17.4622H49.0635C50.6369 17.4622 51.8345 17.0032 52.6561 16.0851C53.4854 15.1594 53.9001 13.8126 53.9001 12.0448C53.9001 10.33 53.4815 9.01355 52.6444 8.09546C51.8073 7.17738 50.6137 6.71833 49.0635 6.71833H46.5289V17.4622Z" fill="#1EB0DE"/>
<rect x="63.3464" y="0.365234" width="24.6347" height="24.6347" rx="1" fill="#1EB0DE"/>
<rect x="67.546" y="15.6154" width="2.34616" height="4.69233" rx="0.3" fill="white"/>
<rect x="67.5466" y="12.0961" width="2.34616" height="2.34616" rx="0.3" fill="white"/>
<rect x="74.6986" y="10.9231" width="2.34616" height="9.38466" rx="0.3" fill="white"/>
<rect x="74.6992" y="7.40381" width="2.34616" height="2.34616" rx="0.3" fill="white"/>
<rect x="81.8501" y="7.40381" width="2.34616" height="12.9039" rx="0.3" fill="white"/>
<rect x="81.8502" y="3.88452" width="2.34616" height="2.34616" rx="0.3" fill="white"/>
</svg>
