<svg width="1319" height="584" viewBox="0 0 1319 584" fill="none" xmlns="http://www.w3.org/2000/svg">
<g opacity="0.35">
<path d="M8.64 318.552V281.4H177.696V318.552H113.76V483H72.288V318.552H8.64ZM250.117 483H208.645V281.4H301.957C323.461 281.4 340.357 286.968 352.645 298.104C365.125 309.048 371.365 323.352 371.365 341.016C371.365 354.456 367.621 366.168 360.133 376.152C352.837 385.944 342.661 392.856 329.605 396.888L391.813 483H343.717L284.965 401.496H250.117V483ZM250.117 317.688V366.648H299.653C309.061 366.648 316.357 364.536 321.541 360.312C326.917 356.088 329.605 350.04 329.605 342.168C329.605 334.488 326.917 328.536 321.541 324.312C316.357 319.896 309.061 317.688 299.653 317.688H250.117ZM444.94 483H401.452L487.852 280.248H527.596L613.996 483H569.932L550.06 436.344H464.812L444.94 483ZM507.436 332.088L477.772 402.072H536.812L507.436 332.088ZM682.117 483H640.645V281.4H788.389V318.552H682.117V359.448H764.197V396.024H682.117V483ZM862.961 483H821.489V281.4H969.233V318.552H862.961V359.448H945.041V396.024H862.961V483ZM1044.96 483H1003.77V281.4H1044.96V483ZM1192.88 487.032C1161.59 487.032 1135.57 477.24 1114.84 457.656C1094.1 437.688 1083.73 412.536 1083.73 382.2C1083.73 351.48 1094 326.328 1114.55 306.744C1135.28 287.16 1161.4 277.368 1192.88 277.368C1212.47 277.368 1230.23 281.592 1246.16 290.04V331.8C1230.61 321.432 1212.95 316.248 1193.17 316.248C1174.16 316.248 1158.13 322.488 1145.08 334.968C1132.4 347.256 1126.07 363 1126.07 382.2C1126.07 401.4 1132.6 417.24 1145.65 429.72C1158.52 442.008 1174.93 448.152 1194.9 448.152C1216.98 448.152 1235.41 442.296 1250.2 430.584V472.344C1233.88 482.136 1214.77 487.032 1192.88 487.032Z" fill="#2A3E67"/>
<path d="M8.64 318.552V281.4H177.696V318.552H113.76V483H72.288V318.552H8.64ZM250.117 483H208.645V281.4H301.957C323.461 281.4 340.357 286.968 352.645 298.104C365.125 309.048 371.365 323.352 371.365 341.016C371.365 354.456 367.621 366.168 360.133 376.152C352.837 385.944 342.661 392.856 329.605 396.888L391.813 483H343.717L284.965 401.496H250.117V483ZM250.117 317.688V366.648H299.653C309.061 366.648 316.357 364.536 321.541 360.312C326.917 356.088 329.605 350.04 329.605 342.168C329.605 334.488 326.917 328.536 321.541 324.312C316.357 319.896 309.061 317.688 299.653 317.688H250.117ZM444.94 483H401.452L487.852 280.248H527.596L613.996 483H569.932L550.06 436.344H464.812L444.94 483ZM507.436 332.088L477.772 402.072H536.812L507.436 332.088ZM682.117 483H640.645V281.4H788.389V318.552H682.117V359.448H764.197V396.024H682.117V483ZM862.961 483H821.489V281.4H969.233V318.552H862.961V359.448H945.041V396.024H862.961V483ZM1044.96 483H1003.77V281.4H1044.96V483ZM1192.88 487.032C1161.59 487.032 1135.57 477.24 1114.84 457.656C1094.1 437.688 1083.73 412.536 1083.73 382.2C1083.73 351.48 1094 326.328 1114.55 306.744C1135.28 287.16 1161.4 277.368 1192.88 277.368C1212.47 277.368 1230.23 281.592 1246.16 290.04V331.8C1230.61 321.432 1212.95 316.248 1193.17 316.248C1174.16 316.248 1158.13 322.488 1145.08 334.968C1132.4 347.256 1126.07 363 1126.07 382.2C1126.07 401.4 1132.6 417.24 1145.65 429.72C1158.52 442.008 1174.93 448.152 1194.9 448.152C1216.98 448.152 1235.41 442.296 1250.2 430.584V472.344C1233.88 482.136 1214.77 487.032 1192.88 487.032Z" fill="#2D3952"/>
</g>
<g opacity="0.35">
<path d="M33.64 96.5517V59.3997H202.696V96.5517H138.76V261H97.288V96.5517H33.64ZM275.117 261H233.645V59.3997H326.957C348.461 59.3997 365.357 64.9677 377.645 76.1038C390.125 87.0477 396.365 101.352 396.365 119.016C396.365 132.456 392.621 144.168 385.133 154.152C377.837 163.944 367.661 170.856 354.605 174.888L416.813 261H368.717L309.965 179.496H275.117V261ZM275.117 95.6878V144.648H324.653C334.061 144.648 341.357 142.536 346.541 138.312C351.917 134.088 354.605 128.04 354.605 120.168C354.605 112.488 351.917 106.536 346.541 102.312C341.357 97.8958 334.061 95.6878 324.653 95.6878H275.117ZM469.94 261H426.452L512.852 58.2477H552.596L638.996 261H594.932L575.06 214.344H489.812L469.94 261ZM532.436 110.088L502.772 180.072H561.812L532.436 110.088ZM707.117 261H665.645V59.3997H813.389V96.5517H707.117V137.448H789.197V174.024H707.117V261ZM887.961 261H846.489V59.3997H994.233V96.5517H887.961V137.448H970.041V174.024H887.961V261ZM1069.96 261H1028.77V59.3997H1069.96V261ZM1217.88 265.032C1186.59 265.032 1160.57 255.24 1139.84 235.656C1119.1 215.688 1108.73 190.536 1108.73 160.2C1108.73 129.48 1119 104.328 1139.55 84.7437C1160.28 65.1597 1186.4 55.3677 1217.88 55.3677C1237.47 55.3677 1255.23 59.5917 1271.16 68.0398V109.8C1255.61 99.4317 1237.95 94.2477 1218.17 94.2477C1199.16 94.2477 1183.13 100.488 1170.08 112.968C1157.4 125.256 1151.07 141 1151.07 160.2C1151.07 179.4 1157.6 195.24 1170.65 207.72C1183.52 220.008 1199.93 226.152 1219.9 226.152C1241.98 226.152 1260.41 220.296 1275.2 208.584V250.344C1258.88 260.136 1239.77 265.032 1217.88 265.032Z" fill="#2A3E67"/>
<path d="M33.64 96.5517V59.3997H202.696V96.5517H138.76V261H97.288V96.5517H33.64ZM275.117 261H233.645V59.3997H326.957C348.461 59.3997 365.357 64.9677 377.645 76.1038C390.125 87.0477 396.365 101.352 396.365 119.016C396.365 132.456 392.621 144.168 385.133 154.152C377.837 163.944 367.661 170.856 354.605 174.888L416.813 261H368.717L309.965 179.496H275.117V261ZM275.117 95.6878V144.648H324.653C334.061 144.648 341.357 142.536 346.541 138.312C351.917 134.088 354.605 128.04 354.605 120.168C354.605 112.488 351.917 106.536 346.541 102.312C341.357 97.8958 334.061 95.6878 324.653 95.6878H275.117ZM469.94 261H426.452L512.852 58.2477H552.596L638.996 261H594.932L575.06 214.344H489.812L469.94 261ZM532.436 110.088L502.772 180.072H561.812L532.436 110.088ZM707.117 261H665.645V59.3997H813.389V96.5517H707.117V137.448H789.197V174.024H707.117V261ZM887.961 261H846.489V59.3997H994.233V96.5517H887.961V137.448H970.041V174.024H887.961V261ZM1069.96 261H1028.77V59.3997H1069.96V261ZM1217.88 265.032C1186.59 265.032 1160.57 255.24 1139.84 235.656C1119.1 215.688 1108.73 190.536 1108.73 160.2C1108.73 129.48 1119 104.328 1139.55 84.7437C1160.28 65.1597 1186.4 55.3677 1217.88 55.3677C1237.47 55.3677 1255.23 59.5917 1271.16 68.0398V109.8C1255.61 99.4317 1237.95 94.2477 1218.17 94.2477C1199.16 94.2477 1183.13 100.488 1170.08 112.968C1157.4 125.256 1151.07 141 1151.07 160.2C1151.07 179.4 1157.6 195.24 1170.65 207.72C1183.52 220.008 1199.93 226.152 1219.9 226.152C1241.98 226.152 1260.41 220.296 1275.2 208.584V250.344C1258.88 260.136 1239.77 265.032 1217.88 265.032Z" fill="#21385A"/>
</g>
</svg>
